# xmcd
#
# Track frame offsets: 
#        150
#        22733
#        48831
#        81715
#        108746
#        157951
#        173115
#
# Disc length: 2491 seconds
#
# Revision: 0
# Processed by: cddbd v1.5.1PL0 Copyright (c) Steve Scherf et al.
# Submitted via: ExactAudioCopy v0.95b3
#
DISCID=4e09b907
DTITLE=B.B.KING - KING OF THE BLUES
DYEAR=1900
DGENRE=Blues
TTITLE0=THE THRILL IS GONE
TTITLE1=GUESS WHO
TTITLE2=ALL OVER AGAIN
TTITLE3=SWEET LITTLE ANGEL
TTITLE4=B.B.'S THEME
TTITLE5=PRECIOUS LOAD
TTITLE6=SAVE A SEAT FOR ME
EXTD=
EXTT0=
EXTT1=
EXTT2=
EXTT3=
EXTT4=
EXTT5=
EXTT6=
PLAYORDER=
